Output #0, mpeg, to '03.mpg':
    Stream #0:0: Video: mpeg1video, yuv420p, 640x480, q=2-31, 400 kb/s, 25 tbn
[mpeg @ 0x121c1b580] VBV buffer size not set, using default size of 230KB
If you want the mpeg file to be compliant to some specification
Like DVD, VCD or others, make sure you set the correct buffer size
视频编码
pts:0 pts_time:0 dts:-3600 dts_time:-0.04 duration:0 duration_time:0 stream_index:0
[mpeg @ 0x121c1b580] buffer underflow st=0 bufi=9326 size=37213
[mpeg @ 0x121c1b580] buffer underflow st=0 bufi=11367 size=37213
[mpeg @ 0x121c1b580] buffer underflow st=0 bufi=13408 size=37213
[mpeg @ 0x121c1b580] buffer underflow st=0 bufi=15449 size=37213
[mpeg @ 0x121c1b580] buffer underflow st=0 bufi=17490 size=37213
[mpeg @ 0x121c1b580] buffer underflow st=0 bufi=19531 size=37213
[mpeg @ 0x121c1b580] buffer underflow st=0 bufi=21572 size=37213
[mpeg @ 0x121c1b580] buffer underflow st=0 bufi=23613 size=37213
[mpeg @ 0x121c1b580] buffer underflow st=0 bufi=25654 size=37213
[mpeg @ 0x121c1b580] buffer underflow st=0 bufi=27695 size=37213
[mpeg @ 0x121c1b580] buffer underflow st=0 bufi=29736 size=37213
[mpeg @ 0x121c1b580] buffer underflow st=0 bufi=31777 size=37213
[mpeg @ 0x121c1b580] buffer underflow st=0 bufi=33818 size=37213
[mpeg @ 0x121c1b580] buffer underflow st=0 bufi=35859 size=37213
pts:3600 pts_time:0.04 dts:0 dts_time:0 duration:0 duration_time:0 stream_index:0
[mpeg @ 0x121c1b580] buffer underflow st=0 bufi=678 size=15831
[mpeg @ 0x121c1b580] buffer underflow st=0 bufi=2719 size=15831
[mpeg @ 0x121c1b580] buffer underflow st=0 bufi=4760 size=15831
[mpeg @ 0x121c1b580] buffer underflow st=0 bufi=6801 size=15831
[mpeg @ 0x121c1b580] buffer underflow st=0 bufi=8842 size=15831
[mpeg @ 0x121c1b580] buffer underflow st=0 bufi=10883 size=15831
[mpeg @ 0x121c1b580] buffer underflow st=0 bufi=12924 size=15831
[mpeg @ 0x121c1b580] buffer underflow st=0 bufi=14965 size=15831
pts:7200 pts_time:0.08 dts:3600 dts_time:0.04 duration:0 duration_time:0 stream_index:0
[mpeg @ 0x121c1b580] buffer underflow st=0 bufi=1166 size=27773
[mpeg @ 0x121c1b580] buffer underflow st=0 bufi=3207 size=27773
[mpeg @ 0x121c1b580] buffer underflow st=0 bufi=5248 size=27773
[mpeg @ 0x121c1b580] buffer underflow st=0 bufi=7289 size=27773
[mpeg @ 0x121c1b580] buffer underflow st=0 bufi=9330 size=27773
[mpeg @ 0x121c1b580] buffer underflow st=0 bufi=11371 size=27773
[mpeg @ 0x121c1b580] buffer underflow st=0 bufi=13412 size=27773
[mpeg @ 0x121c1b580] buffer underflow st=0 bufi=15453 size=27773
[mpeg @ 0x121c1b580] buffer underflow st=0 bufi=17494 size=27773
[mpeg @ 0x121c1b580] buffer underflow st=0 bufi=19535 size=27773
[mpeg @ 0x121c1b580] buffer underflow st=0 bufi=21576 size=27773
[mpeg @ 0x121c1b580] buffer underflow st=0 bufi=23617 size=27773
[mpeg @ 0x121c1b580] buffer underflow st=0 bufi=25658 size=27773
[mpeg @ 0x121c1b580] buffer underflow st=0 bufi=27699 size=27773
pts:10800 pts_time:0.12 dts:7200 dts_time:0.08 duration:0 duration_time:0 stream_index:0
pts:14400 pts_time:0.16 dts:10800 dts_time:0.12 duration:0 duration_time:0 stream_index:0
pts:18000 pts_time:0.2 dts:14400 dts_time:0.16 duration:0 duration_time:0 stream_index:0
[mpeg @ 0x121c1b580] buffer underflow st=0 bufi=579 size=890
pts:21600 pts_time:0.24 dts:18000 dts_time:0.2 duration:0 duration_time:0 stream_index:0
pts:25200 pts_time:0.28 dts:21600 dts_time:0.24 duration:0 duration_time:0 stream_index:0
[mpeg @ 0x121c1b580] buffer underflow st=0 bufi=832 size=1243
pts:28800 pts_time:0.32 dts:25200 dts_time:0.28 duration:0 duration_time:0 stream_index:0
pts:32400 pts_time:0.36 dts:28800 dts_time:0.32 duration:0 duration_time:0 stream_index:0
[mpeg @ 0x121c1b580] buffer underflow st=0 bufi=1382 size=2126
pts:36000 pts_time:0.4 dts:32400 dts_time:0.36 duration:0 duration_time:0 stream_index:0
pts:39600 pts_time:0.44 dts:36000 dts_time:0.4 duration:0 duration_time:0 stream_index:0
[mpeg @ 0x121c1b580] buffer underflow st=0 bufi=791 size=21198
[mpeg @ 0x121c1b580] buffer underflow st=0 bufi=2832 size=21198
[mpeg @ 0x121c1b580] buffer underflow st=0 bufi=4873 size=21198
[mpeg @ 0x121c1b580] buffer underflow st=0 bufi=6914 size=21198
[mpeg @ 0x121c1b580] buffer underflow st=0 bufi=8955 size=21198
[mpeg @ 0x121c1b580] buffer underflow st=0 bufi=10996 size=21198
[mpeg @ 0x121c1b580] buffer underflow st=0 bufi=13037 size=21198
[mpeg @ 0x121c1b580] buffer underflow st=0 bufi=15078 size=21198
[mpeg @ 0x121c1b580] buffer underflow st=0 bufi=17119 size=21198
[mpeg @ 0x121c1b580] buffer underflow st=0 bufi=19160 size=21198
pts:43200 pts_time:0.48 dts:39600 dts_time:0.44 duration:0 duration_time:0 stream_index:0
[mpeg @ 0x121c1b580] buffer underflow st=0 bufi=3 size=6019
[mpeg @ 0x121c1b580] buffer underflow st=0 bufi=2044 size=6019
[mpeg @ 0x121c1b580] buffer underflow st=0 bufi=4085 size=6019
pts:46800 pts_time:0.52 dts:43200 dts_time:0.48 duration:0 duration_time:0 stream_index:0
[mpeg @ 0x121c1b580] buffer underflow st=0 bufi=98 size=1015
pts:50400 pts_time:0.56 dts:46800 dts_time:0.52 duration:0 duration_time:0 stream_index:0
[mpeg @ 0x121c1b580] buffer underflow st=0 bufi=1115 size=1794
pts:54000 pts_time:0.6 dts:50400 dts_time:0.56 duration:0 duration_time:0 stream_index:0
pts:57600 pts_time:0.64 dts:54000 dts_time:0.6 duration:0 duration_time:0 stream_index:0
[mpeg @ 0x121c1b580] buffer underflow st=0 bufi=105 size=1118
pts:61200 pts_time:0.68 dts:57600 dts_time:0.64 duration:0 duration_time:0 stream_index:0
[mpeg @ 0x121c1b580] buffer underflow st=0 bufi=1019 size=1873
pts:64800 pts_time:0.72 dts:61200 dts_time:0.68 duration:0 duration_time:0 stream_index:0
[mpeg @ 0x121c1b580] buffer underflow st=0 bufi=1178 size=9831
[mpeg @ 0x121c1b580] buffer underflow st=0 bufi=3219 size=9831
[mpeg @ 0x121c1b580] buffer underflow st=0 bufi=5260 size=9831
[mpeg @ 0x121c1b580] buffer underflow st=0 bufi=7301 size=9831
[mpeg @ 0x121c1b580] buffer underflow st=0 bufi=9342 size=9831
pts:68400 pts_time:0.76 dts:64800 dts_time:0.72 duration:0 duration_time:0 stream_index:0
pts:72000 pts_time:0.8 dts:68400 dts_time:0.76 duration:0 duration_time:0 stream_index:0
[mpeg @ 0x121c1b580] buffer underflow st=0 bufi=288 size=5881
[mpeg @ 0x121c1b580] buffer underflow st=0 bufi=2329 size=5881
[mpeg @ 0x121c1b580] buffer underflow st=0 bufi=4370 size=5881
pts:75600 pts_time:0.84 dts:72000 dts_time:0.8 duration:0 duration_time:0 stream_index:0
[mpeg @ 0x121c1b580] buffer underflow st=0 bufi=521 size=1053
pts:79200 pts_time:0.88 dts:75600 dts_time:0.84 duration:0 duration_time:0 stream_index:0
[mpeg @ 0x121c1b580] buffer underflow st=0 bufi=1500 size=1997
pts:82800 pts_time:0.92 dts:79200 dts_time:0.88 duration:0 duration_time:0 stream_index:0
[mpeg @ 0x121c1b580] buffer underflow st=0 bufi=1535 size=19457
[mpeg @ 0x121c1b580] buffer underflow st=0 bufi=3576 size=19457
[mpeg @ 0x121c1b580] buffer underflow st=0 bufi=5617 size=19457
[mpeg @ 0x121c1b580] buffer underflow st=0 bufi=7658 size=19457
[mpeg @ 0x121c1b580] buffer underflow st=0 bufi=9699 size=19457
[mpeg @ 0x121c1b580] buffer underflow st=0 bufi=11740 size=19457
[mpeg @ 0x121c1b580] buffer underflow st=0 bufi=13781 size=19457
[mpeg @ 0x121c1b580] buffer underflow st=0 bufi=15822 size=19457
[mpeg @ 0x121c1b580] buffer underflow st=0 bufi=17863 size=19457
pts:86400 pts_time:0.96 dts:82800 dts_time:0.92 duration:0 duration_time:0 stream_index:0
pts:90000 pts_time:1 dts:86400 dts_time:0.96 duration:0 duration_time:0 stream_index:0
[mpeg @ 0x121c1b580] buffer underflow st=0 bufi=145 size=2112
pts:93600 pts_time:1.04 dts:90000 dts_time:1 duration:0 duration_time:0 stream_index:0
[mpeg @ 0x121c1b580] buffer underflow st=0 bufi=65 size=10233
[mpeg @ 0x121c1b580] buffer underflow st=0 bufi=2106 size=10233
[mpeg @ 0x121c1b580] buffer underflow st=0 bufi=4147 size=10233
[mpeg @ 0x121c1b580] buffer underflow st=0 bufi=6188 size=10233
[mpeg @ 0x121c1b580] buffer underflow st=0 bufi=8229 size=10233
pts:97200 pts_time:1.08 dts:93600 dts_time:1.04 duration:0 duration_time:0 stream_index:0
[mpeg @ 0x121c1b580] buffer underflow st=0 bufi=28 size=458
pts:100800 pts_time:1.12 dts:97200 dts_time:1.08 duration:0 duration_time:0 stream_index:0
pts:104400 pts_time:1.16 dts:100800 dts_time:1.12 duration:0 duration_time:0 stream_index:0
[mpeg @ 0x121c1b580] buffer underflow st=0 bufi=580 size=3105
[mpeg @ 0x121c1b580] buffer underflow st=0 bufi=2621 size=3105
pts:108000 pts_time:1.2 dts:104400 dts_time:1.16 duration:0 duration_time:0 stream_index:0
pts:111600 pts_time:1.24 dts:108000 dts_time:1.2 duration:0 duration_time:0 stream_index:0
[mpeg @ 0x121c1b580] buffer underflow st=0 bufi=398 size=1156
pts:115200 pts_time:1.28 dts:111600 dts_time:1.24 duration:0 duration_time:0 stream_index:0
pts:118800 pts_time:1.32 dts:115200 dts_time:1.28 duration:0 duration_time:0 stream_index:0
[mpeg @ 0x121c1b580] buffer underflow st=0 bufi=262 size=2843
[mpeg @ 0x121c1b580] buffer underflow st=0 bufi=2303 size=2843
pts:122400 pts_time:1.36 dts:118800 dts_time:1.32 duration:0 duration_time:0 stream_index:0
pts:126000 pts_time:1.4 dts:122400 dts_time:1.36 duration:0 duration_time:0 stream_index:0
[mpeg @ 0x121c1b580] buffer underflow st=0 bufi=1316 size=21056
[mpeg @ 0x121c1b580] buffer underflow st=0 bufi=3357 size=21056
[mpeg @ 0x121c1b580] buffer underflow st=0 bufi=5398 size=21056
[mpeg @ 0x121c1b580] buffer underflow st=0 bufi=7427 size=21056
[mpeg @ 0x121c1b580] buffer underflow st=0 bufi=9468 size=21056
[mpeg @ 0x121c1b580] buffer underflow st=0 bufi=11509 size=21056
[mpeg @ 0x121c1b580] buffer underflow st=0 bufi=13550 size=21056
[mpeg @ 0x121c1b580] buffer underflow st=0 bufi=15591 size=21056
[mpeg @ 0x121c1b580] buffer underflow st=0 bufi=17632 size=21056
[mpeg @ 0x121c1b580] buffer underflow st=0 bufi=19673 size=21056
pts:129600 pts_time:1.44 dts:126000 dts_time:1.4 duration:0 duration_time:0 stream_index:0
[mpeg @ 0x121c1b580] buffer underflow st=0 bufi=649 size=2060
pts:133200 pts_time:1.48 dts:129600 dts_time:1.44 duration:0 duration_time:0 stream_index:0
[mpeg @ 0x121c1b580] buffer underflow st=0 bufi=621 size=676
pts:136800 pts_time:1.52 dts:133200 dts_time:1.48 duration:0 duration_time:0 stream_index:0
pts:140400 pts_time:1.56 dts:136800 dts_time:1.52 duration:0 duration_time:0 stream_index:0
[mpeg @ 0x121c1b580] buffer underflow st=0 bufi=1540 size=5280
[mpeg @ 0x121c1b580] buffer underflow st=0 bufi=3581 size=5280
pts:144000 pts_time:1.6 dts:140400 dts_time:1.56 duration:0 duration_time:0 stream_index:0
[mpeg @ 0x121c1b580] buffer underflow st=0 bufi=333 size=1103
pts:147600 pts_time:1.64 dts:144000 dts_time:1.6 duration:0 duration_time:0 stream_index:0
pts:151200 pts_time:1.68 dts:147600 dts_time:1.64 duration:0 duration_time:0 stream_index:0
[mpeg @ 0x121c1b580] buffer underflow st=0 bufi=740 size=1665
pts:154800 pts_time:1.72 dts:151200 dts_time:1.68 duration:0 duration_time:0 stream_index:0
[mpeg @ 0x121c1b580] buffer underflow st=0 bufi=1107 size=1591
pts:158400 pts_time:1.76 dts:154800 dts_time:1.72 duration:0 duration_time:0 stream_index:0
pts:162000 pts_time:1.8 dts:158400 dts_time:1.76 duration:0 duration_time:0 stream_index:0
[mpeg @ 0x121c1b580] buffer underflow st=0 bufi=1182 size=2428
pts:165600 pts_time:1.84 dts:162000 dts_time:1.8 duration:0 duration_time:0 stream_index:0
[mpeg @ 0x121c1b580] buffer underflow st=0 bufi=786 size=907
pts:169200 pts_time:1.88 dts:165600 dts_time:1.84 duration:0 duration_time:0 stream_index:0
[mpeg @ 0x121c1b580] buffer underflow st=0 bufi=1911 size=26387
[mpeg @ 0x121c1b580] buffer underflow st=0 bufi=3952 size=26387
[mpeg @ 0x121c1b580] buffer underflow st=0 bufi=5993 size=26387
[mpeg @ 0x121c1b580] buffer underflow st=0 bufi=8034 size=26387
[mpeg @ 0x121c1b580] buffer underflow st=0 bufi=10075 size=26387
[mpeg @ 0x121c1b580] buffer underflow st=0 bufi=12116 size=26387
[mpeg @ 0x121c1b580] buffer underflow st=0 bufi=14157 size=26387
[mpeg @ 0x121c1b580] buffer underflow st=0 bufi=16198 size=26387
[mpeg @ 0x121c1b580] buffer underflow st=0 bufi=18239 size=26387
[mpeg @ 0x121c1b580] buffer underflow st=0 bufi=20280 size=26387
[mpeg @ 0x121c1b580] buffer underflow st=0 bufi=22321 size=26387
[mpeg @ 0x121c1b580] buffer underflow st=0 bufi=24362 size=26387
pts:172800 pts_time:1.92 dts:169200 dts_time:1.88 duration:0 duration_time:0 stream_index:0
[mpeg @ 0x121c1b580] buffer underflow st=0 bufi=7 size=3901
[mpeg @ 0x121c1b580] buffer underflow st=0 bufi=2048 size=3901
pts:176400 pts_time:1.96 dts:172800 dts_time:1.92 duration:0 duration_time:0 stream_index:0
[mpeg @ 0x121c1b580] buffer underflow st=0 bufi=179 size=720
pts:180000 pts_time:2 dts:176400 dts_time:1.96 duration:0 duration_time:0 stream_index:0
pts:183600 pts_time:2.04 dts:180000 dts_time:2 duration:0 duration_time:0 stream_index:0
[mpeg @ 0x121c1b580] buffer underflow st=0 bufi=908 size=1323
pts:187200 pts_time:2.08 dts:183600 dts_time:2.04 duration:0 duration_time:0 stream_index:0
pts:190800 pts_time:2.12 dts:187200 dts_time:2.08 duration:0 duration_time:0 stream_index:0
[mpeg @ 0x121c1b580] buffer underflow st=0 bufi=366 size=787
pts:194400 pts_time:2.16 dts:190800 dts_time:2.12 duration:0 duration_time:0 stream_index:0
pts:198000 pts_time:2.2 dts:194400 dts_time:2.16 duration:0 duration_time:0 stream_index:0
[mpeg @ 0x121c1b580] buffer underflow st=0 bufi=880 size=2354
pts:201600 pts_time:2.24 dts:198000 dts_time:2.2 duration:0 duration_time:0 stream_index:0
pts:205200 pts_time:2.28 dts:201600 dts_time:2.24 duration:0 duration_time:0 stream_index:0
[mpeg @ 0x121c1b580] buffer underflow st=0 bufi=457 size=1054
pts:208800 pts_time:2.32 dts:205200 dts_time:2.28 duration:0 duration_time:0 stream_index:0
pts:212400 pts_time:2.36 dts:208800 dts_time:2.32 duration:0 duration_time:0 stream_index:0
[mpeg @ 0x121c1b580] buffer underflow st=0 bufi=476 size=30126
[mpeg @ 0x121c1b580] buffer underflow st=0 bufi=2517 size=30126
[mpeg @ 0x121c1b580] buffer underflow st=0 bufi=4558 size=30126
[mpeg @ 0x121c1b580] buffer underflow st=0 bufi=6599 size=30126
[mpeg @ 0x121c1b580] buffer underflow st=0 bufi=8640 size=30126
[mpeg @ 0x121c1b580] buffer underflow st=0 bufi=10681 size=30126
[mpeg @ 0x121c1b580] buffer underflow st=0 bufi=12722 size=30126
[mpeg @ 0x121c1b580] buffer underflow st=0 bufi=14763 size=30126
[mpeg @ 0x121c1b580] buffer underflow st=0 bufi=16804 size=30126
[mpeg @ 0x121c1b580] buffer underflow st=0 bufi=18845 size=30126
[mpeg @ 0x121c1b580] buffer underflow st=0 bufi=20886 size=30126
[mpeg @ 0x121c1b580] buffer underflow st=0 bufi=22927 size=30126
[mpeg @ 0x121c1b580] buffer underflow st=0 bufi=24968 size=30126
[mpeg @ 0x121c1b580] buffer underflow st=0 bufi=27009 size=30126
[mpeg @ 0x121c1b580] buffer underflow st=0 bufi=29050 size=30126
pts:216000 pts_time:2.4 dts:212400 dts_time:2.36 duration:0 duration_time:0 stream_index:0
pts:219600 pts_time:2.44 dts:216000 dts_time:2.4 duration:0 duration_time:0 stream_index:0
[mpeg @ 0x121c1b580] buffer underflow st=0 bufi=117 size=350
pts:223200 pts_time:2.48 dts:219600 dts_time:2.44 duration:0 duration_time:0 stream_index:0
[mpeg @ 0x121c1b580] buffer underflow st=0 bufi=1799 size=3616
pts:226800 pts_time:2.52 dts:223200 dts_time:2.48 duration:0 duration_time:0 stream_index:0
pts:230400 pts_time:2.56 dts:226800 dts_time:2.52 duration:0 duration_time:0 stream_index:0
pts:234000 pts_time:2.6 dts:230400 dts_time:2.56 duration:0 duration_time:0 stream_index:0
[mpeg @ 0x121c1b580] buffer underflow st=0 bufi=53 size=1613
pts:237600 pts_time:2.64 dts:234000 dts_time:2.6 duration:0 duration_time:0 stream_index:0
[mpeg @ 0x121c1b580] buffer underflow st=0 bufi=472 size=992
pts:241200 pts_time:2.68 dts:237600 dts_time:2.64 duration:0 duration_time:0 stream_index:0
pts:244800 pts_time:2.72 dts:241200 dts_time:2.68 duration:0 duration_time:0 stream_index:0
[mpeg @ 0x121c1b580] buffer underflow st=0 bufi=1444 size=8619
[mpeg @ 0x121c1b580] buffer underflow st=0 bufi=3485 size=8619
[mpeg @ 0x121c1b580] buffer underflow st=0 bufi=5526 size=8619
[mpeg @ 0x121c1b580] buffer underflow st=0 bufi=7567 size=8619
pts:248400 pts_time:2.76 dts:244800 dts_time:2.72 duration:0 duration_time:0 stream_index:0
pts:252000 pts_time:2.8 dts:248400 dts_time:2.76 duration:0 duration_time:0 stream_index:0
[mpeg @ 0x121c1b580] buffer underflow st=0 bufi=304 size=486
pts:255600 pts_time:2.84 dts:252000 dts_time:2.8 duration:0 duration_time:0 stream_index:0
[mpeg @ 0x121c1b580] buffer underflow st=0 bufi=1850 size=20360
[mpeg @ 0x121c1b580] buffer underflow st=0 bufi=3891 size=20360
[mpeg @ 0x121c1b580] buffer underflow st=0 bufi=5932 size=20360
[mpeg @ 0x121c1b580] buffer underflow st=0 bufi=7973 size=20360
[mpeg @ 0x121c1b580] buffer underflow st=0 bufi=10014 size=20360
[mpeg @ 0x121c1b580] buffer underflow st=0 bufi=12055 size=20360
[mpeg @ 0x121c1b580] buffer underflow st=0 bufi=14096 size=20360
[mpeg @ 0x121c1b580] buffer underflow st=0 bufi=16137 size=20360
[mpeg @ 0x121c1b580] buffer underflow st=0 bufi=18178 size=20360
[mpeg @ 0x121c1b580] buffer underflow st=0 bufi=20219 size=20360
pts:259200 pts_time:2.88 dts:255600 dts_time:2.84 duration:0 duration_time:0 stream_index:0
pts:262800 pts_time:2.92 dts:259200 dts_time:2.88 duration:0 duration_time:0 stream_index:0
[mpeg @ 0x121c1b580] buffer underflow st=0 bufi=88 size=1423
pts:266400 pts_time:2.96 dts:262800 dts_time:2.92 duration:0 duration_time:0 stream_index:0
pts:270000 pts_time:3 dts:266400 dts_time:2.96 duration:0 duration_time:0 stream_index:0
[mpeg @ 0x121c1b580] buffer underflow st=0 bufi=521 size=1593
pts:273600 pts_time:3.04 dts:270000 dts_time:3 duration:0 duration_time:0 stream_index:0
pts:277200 pts_time:3.08 dts:273600 dts_time:3.04 duration:0 duration_time:0 stream_index:0
[mpeg @ 0x121c1b580] buffer underflow st=0 bufi=136 size=3090
[mpeg @ 0x121c1b580] buffer underflow st=0 bufi=2177 size=3090
pts:280800 pts_time:3.12 dts:277200 dts_time:3.08 duration:0 duration_time:0 stream_index:0
pts:284400 pts_time:3.16 dts:280800 dts_time:3.12 duration:0 duration_time:0 stream_index:0
pts:288000 pts_time:3.2 dts:284400 dts_time:3.16 duration:0 duration_time:0 stream_index:0
[mpeg @ 0x121c1b580] buffer underflow st=0 bufi=804 size=5117
[mpeg @ 0x121c1b580] buffer underflow st=0 bufi=2845 size=5117
[mpeg @ 0x121c1b580] buffer underflow st=0 bufi=4886 size=5117
pts:291600 pts_time:3.24 dts:288000 dts_time:3.2 duration:0 duration_time:0 stream_index:0
pts:295200 pts_time:3.28 dts:291600 dts_time:3.24 duration:0 duration_time:0 stream_index:0
pts:298800 pts_time:3.32 dts:295200 dts_time:3.28 duration:0 duration_time:0 stream_index:0
[mpeg @ 0x121c1b580] buffer underflow st=0 bufi=1583 size=25807
[mpeg @ 0x121c1b580] buffer underflow st=0 bufi=3624 size=25807
[mpeg @ 0x121c1b580] buffer underflow st=0 bufi=5665 size=25807
[mpeg @ 0x121c1b580] buffer underflow st=0 bufi=7706 size=25807
[mpeg @ 0x121c1b580] buffer underflow st=0 bufi=9747 size=25807
[mpeg @ 0x121c1b580] buffer underflow st=0 bufi=11788 size=25807
[mpeg @ 0x121c1b580] buffer underflow st=0 bufi=13829 size=25807
[mpeg @ 0x121c1b580] buffer underflow st=0 bufi=15870 size=25807
[mpeg @ 0x121c1b580] buffer underflow st=0 bufi=17911 size=25807
[mpeg @ 0x121c1b580] buffer underflow st=0 bufi=19952 size=25807
[mpeg @ 0x121c1b580] buffer underflow st=0 bufi=21993 size=25807
[mpeg @ 0x121c1b580] buffer underflow st=0 bufi=24034 size=25807
pts:302400 pts_time:3.36 dts:298800 dts_time:3.32 duration:0 duration_time:0 stream_index:0
[mpeg @ 0x121c1b580] buffer underflow st=0 bufi=259 size=3219
[mpeg @ 0x121c1b580] buffer underflow st=0 bufi=2300 size=3219
pts:306000 pts_time:3.4 dts:302400 dts_time:3.36 duration:0 duration_time:0 stream_index:0
pts:309600 pts_time:3.44 dts:306000 dts_time:3.4 duration:0 duration_time:0 stream_index:0
pts:313200 pts_time:3.48 dts:309600 dts_time:3.44 duration:0 duration_time:0 stream_index:0
[mpeg @ 0x121c1b580] buffer underflow st=0 bufi=962 size=1183
pts:316800 pts_time:3.52 dts:313200 dts_time:3.48 duration:0 duration_time:0 stream_index:0
pts:320400 pts_time:3.56 dts:316800 dts_time:3.52 duration:0 duration_time:0 stream_index:0
pts:324000 pts_time:3.6 dts:320400 dts_time:3.56 duration:0 duration_time:0 stream_index:0
pts:327600 pts_time:3.64 dts:324000 dts_time:3.6 duration:0 duration_time:0 stream_index:0
[mpeg @ 0x121c1b580] buffer underflow st=0 bufi=135 size=5008
[mpeg @ 0x121c1b580] buffer underflow st=0 bufi=2176 size=5008
[mpeg @ 0x121c1b580] buffer underflow st=0 bufi=4217 size=5008
pts:331200 pts_time:3.68 dts:327600 dts_time:3.64 duration:0 duration_time:0 stream_index:0
pts:334800 pts_time:3.72 dts:331200 dts_time:3.68 duration:0 duration_time:0 stream_index:0
pts:338400 pts_time:3.76 dts:334800 dts_time:3.72 duration:0 duration_time:0 stream_index:0
pts:342000 pts_time:3.8 dts:338400 dts_time:3.76 duration:0 duration_time:0 stream_index:0
[mpeg @ 0x121c1b580] buffer underflow st=0 bufi=985 size=34717
[mpeg @ 0x121c1b580] buffer underflow st=0 bufi=3026 size=34717
[mpeg @ 0x121c1b580] buffer underflow st=0 bufi=5067 size=34717
[mpeg @ 0x121c1b580] buffer underflow st=0 bufi=7108 size=34717
[mpeg @ 0x121c1b580] buffer underflow st=0 bufi=9149 size=34717
[mpeg @ 0x121c1b580] buffer underflow st=0 bufi=11190 size=34717
[mpeg @ 0x121c1b580] buffer underflow st=0 bufi=13231 size=34717
[mpeg @ 0x121c1b580] buffer underflow st=0 bufi=15272 size=34717
[mpeg @ 0x121c1b580] buffer underflow st=0 bufi=17313 size=34717
[mpeg @ 0x121c1b580] buffer underflow st=0 bufi=19354 size=34717
[mpeg @ 0x121c1b580] buffer underflow st=0 bufi=21383 size=34717
[mpeg @ 0x121c1b580] buffer underflow st=0 bufi=23424 size=34717
[mpeg @ 0x121c1b580] buffer underflow st=0 bufi=25465 size=34717
[mpeg @ 0x121c1b580] buffer underflow st=0 bufi=27506 size=34717
[mpeg @ 0x121c1b580] buffer underflow st=0 bufi=29547 size=34717
[mpeg @ 0x121c1b580] buffer underflow st=0 bufi=31588 size=34717
[mpeg @ 0x121c1b580] buffer underflow st=0 bufi=33629 size=34717
pts:345600 pts_time:3.84 dts:342000 dts_time:3.8 duration:0 duration_time:0 stream_index:0
pts:349200 pts_time:3.88 dts:345600 dts_time:3.84 duration:0 duration_time:0 stream_index:0
[mpeg @ 0x121c1b580] buffer underflow st=0 bufi=12 size=384
pts:352800 pts_time:3.92 dts:349200 dts_time:3.88 duration:0 duration_time:0 stream_index:0
pts:356400 pts_time:3.96 dts:352800 dts_time:3.92 duration:0 duration_time:0 stream_index:0
[mpeg @ 0x121c1b580] buffer underflow st=0 bufi=1319 size=4973
[mpeg @ 0x121c1b580] buffer underflow st=0 bufi=3360 size=4973
pts:360000 pts_time:4 dts:356400 dts_time:3.96 duration:0 duration_time:0 stream_index:0
[mpeg @ 0x121c1b580] buffer underflow st=0 bufi=419 size=21975
[mpeg @ 0x121c1b580] buffer underflow st=0 bufi=2460 size=21975
[mpeg @ 0x121c1b580] buffer underflow st=0 bufi=4501 size=21975
[mpeg @ 0x121c1b580] buffer underflow st=0 bufi=6542 size=21975
[mpeg @ 0x121c1b580] buffer underflow st=0 bufi=8583 size=21975
[mpeg @ 0x121c1b580] buffer underflow st=0 bufi=10624 size=21975
[mpeg @ 0x121c1b580] buffer underflow st=0 bufi=12665 size=21975
[mpeg @ 0x121c1b580] buffer underflow st=0 bufi=14706 size=21975
[mpeg @ 0x121c1b580] buffer underflow st=0 bufi=16747 size=21975
[mpeg @ 0x121c1b580] buffer underflow st=0 bufi=18788 size=21975
[mpeg @ 0x121c1b580] buffer underflow st=0 bufi=20829 size=21975
pts:363600 pts_time:4.04 dts:360000 dts_time:4 duration:0 duration_time:0 stream_index:0
[mpeg @ 0x121c1b580] buffer underflow st=0 bufi=886 size=4155
[mpeg @ 0x121c1b580] buffer underflow st=0 bufi=2927 size=4155
pts:367200 pts_time:4.08 dts:363600 dts_time:4.04 duration:0 duration_time:0 stream_index:0
[mpeg @ 0x121c1b580] buffer underflow st=0 bufi=804 size=4031
[mpeg @ 0x121c1b580] buffer underflow st=0 bufi=2845 size=4031
pts:370800 pts_time:4.12 dts:367200 dts_time:4.08 duration:0 duration_time:0 stream_index:0
[mpeg @ 0x121c1b580] buffer underflow st=0 bufi=846 size=2753
pts:374400 pts_time:4.16 dts:370800 dts_time:4.12 duration:0 duration_time:0 stream_index:0
[mpeg @ 0x121c1b580] buffer underflow st=0 bufi=125 size=2265
[mpeg @ 0x121c1b580] buffer underflow st=0 bufi=2166 size=2265
pts:378000 pts_time:4.2 dts:374400 dts_time:4.16 duration:0 duration_time:0 stream_index:0
[mpeg @ 0x121c1b580] buffer underflow st=0 bufi=1933 size=3548
pts:381600 pts_time:4.24 dts:378000 dts_time:4.2 duration:0 duration_time:0 stream_index:0
[mpeg @ 0x121c1b580] buffer underflow st=0 bufi=417 size=2771
[mpeg @ 0x121c1b580] buffer underflow st=0 bufi=2458 size=2771
pts:385200 pts_time:4.28 dts:381600 dts_time:4.24 duration:0 duration_time:0 stream_index:0
[mpeg @ 0x121c1b580] buffer underflow st=0 bufi=1719 size=11511
[mpeg @ 0x121c1b580] buffer underflow st=0 bufi=3760 size=11511
[mpeg @ 0x121c1b580] buffer underflow st=0 bufi=5801 size=11511
[mpeg @ 0x121c1b580] buffer underflow st=0 bufi=7842 size=11511
[mpeg @ 0x121c1b580] buffer underflow st=0 bufi=9883 size=11511
pts:388800 pts_time:4.32 dts:385200 dts_time:4.28 duration:0 duration_time:0 stream_index:0
[mpeg @ 0x121c1b580] buffer underflow st=0 bufi=404 size=3211
[mpeg @ 0x121c1b580] buffer underflow st=0 bufi=2445 size=3211
pts:392400 pts_time:4.36 dts:388800 dts_time:4.32 duration:0 duration_time:0 stream_index:0
[mpeg @ 0x121c1b580] buffer underflow st=0 bufi=1266 size=1887
pts:396000 pts_time:4.4 dts:392400 dts_time:4.36 duration:0 duration_time:0 stream_index:0
[mpeg @ 0x121c1b580] buffer underflow st=0 bufi=1411 size=2865
pts:399600 pts_time:4.44 dts:396000 dts_time:4.4 duration:0 duration_time:0 stream_index:0
[mpeg @ 0x121c1b580] buffer underflow st=0 bufi=578 size=1500
pts:403200 pts_time:4.48 dts:399600 dts_time:4.44 duration:0 duration_time:0 stream_index:0
[mpeg @ 0x121c1b580] buffer underflow st=0 bufi=1110 size=2391
pts:406800 pts_time:4.52 dts:403200 dts_time:4.48 duration:0 duration_time:0 stream_index:0
[mpeg @ 0x121c1b580] buffer underflow st=0 bufi=751 size=2402
pts:410400 pts_time:4.56 dts:406800 dts_time:4.52 duration:0 duration_time:0 stream_index:0
[mpeg @ 0x121c1b580] buffer underflow st=0 bufi=381 size=1926
pts:414000 pts_time:4.6 dts:410400 dts_time:4.56 duration:0 duration_time:0 stream_index:0
[mpeg @ 0x121c1b580] buffer underflow st=0 bufi=487 size=2171
pts:417600 pts_time:4.64 dts:414000 dts_time:4.6 duration:0 duration_time:0 stream_index:0
[mpeg @ 0x121c1b580] buffer underflow st=0 bufi=348 size=2019
pts:421200 pts_time:4.68 dts:417600 dts_time:4.64 duration:0 duration_time:0 stream_index:0
[mpeg @ 0x121c1b580] buffer underflow st=0 bufi=361 size=2288
pts:424800 pts_time:4.72 dts:421200 dts_time:4.68 duration:0 duration_time:0 stream_index:0
[mpeg @ 0x121c1b580] buffer underflow st=0 bufi=105 size=2081
pts:428400 pts_time:4.76 dts:424800 dts_time:4.72 duration:0 duration_time:0 stream_index:0
[mpeg @ 0x121c1b580] buffer underflow st=0 bufi=56 size=9018
[mpeg @ 0x121c1b580] buffer underflow st=0 bufi=2097 size=9018
[mpeg @ 0x121c1b580] buffer underflow st=0 bufi=4138 size=9018
[mpeg @ 0x121c1b580] buffer underflow st=0 bufi=6179 size=9018
[mpeg @ 0x121c1b580] buffer underflow st=0 bufi=8193 size=9018
pts:432000 pts_time:4.8 dts:428400 dts_time:4.76 duration:0 duration_time:0 stream_index:0
[mpeg @ 0x121c1b580] buffer underflow st=0 bufi=1207 size=1834
pts:435600 pts_time:4.84 dts:432000 dts_time:4.8 duration:0 duration_time:0 stream_index:0
[mpeg @ 0x121c1b580] buffer underflow st=0 bufi=1405 size=2034
pts:439200 pts_time:4.88 dts:435600 dts_time:4.84 duration:0 duration_time:0 stream_index:0
[mpeg @ 0x121c1b580] buffer underflow st=0 bufi=1403 size=2775
pts:442800 pts_time:4.92 dts:439200 dts_time:4.88 duration:0 duration_time:0 stream_index:0
[mpeg @ 0x121c1b580] buffer underflow st=0 bufi=660 size=1690
pts:446400 pts_time:4.96 dts:442800 dts_time:4.92 duration:0 duration_time:0 stream_index:0
[mpeg @ 0x121c1b580] buffer underflow st=0 bufi=1002 size=1865
pts:450000 pts_time:5 dts:446400 dts_time:4.96 duration:0 duration_time:0 stream_index:0
[mpeg @ 0x121c1b580] buffer underflow st=0 bufi=1169 size=2541
pts:453600 pts_time:5.04 dts:450000 dts_time:5 duration:0 duration_time:0 stream_index:0
[mpeg @ 0x121c1b580] buffer underflow st=0 bufi=660 size=2042
pts:457200 pts_time:5.08 dts:453600 dts_time:5.04 duration:0 duration_time:0 stream_index:0
[mpeg @ 0x121c1b580] buffer underflow st=0 bufi=650 size=2216
pts:460800 pts_time:5.12 dts:457200 dts_time:5.08 duration:0 duration_time:0 stream_index:0
[mpeg @ 0x121c1b580] buffer underflow st=0 bufi=466 size=2073
pts:464400 pts_time:5.16 dts:460800 dts_time:5.12 duration:0 duration_time:0 stream_index:0
[mpeg @ 0x121c1b580] buffer underflow st=0 bufi=425 size=2987
[mpeg @ 0x121c1b580] buffer underflow st=0 bufi=2466 size=2987
pts:468000 pts_time:5.2 dts:464400 dts_time:5.16 duration:0 duration_time:0 stream_index:0
[mpeg @ 0x121c1b580] buffer underflow st=0 bufi=1511 size=2357
pts:471600 pts_time:5.24 dts:468000 dts_time:5.2 duration:0 duration_time:0 stream_index:0
[mpeg @ 0x121c1b580] buffer underflow st=0 bufi=1186 size=10784
[mpeg @ 0x121c1b580] buffer underflow st=0 bufi=3227 size=10784
[mpeg @ 0x121c1b580] buffer underflow st=0 bufi=5268 size=10784
[mpeg @ 0x121c1b580] buffer underflow st=0 bufi=7309 size=10784
[mpeg @ 0x121c1b580] buffer underflow st=0 bufi=9350 size=10784
pts:475200 pts_time:5.28 dts:471600 dts_time:5.24 duration:0 duration_time:0 stream_index:0
[mpeg @ 0x121c1b580] buffer underflow st=0 bufi=598 size=3472
[mpeg @ 0x121c1b580] buffer underflow st=0 bufi=2639 size=3472
pts:478800 pts_time:5.32 dts:475200 dts_time:5.28 duration:0 duration_time:0 stream_index:0
[mpeg @ 0x121c1b580] buffer underflow st=0 bufi=1199 size=2350
pts:482400 pts_time:5.36 dts:478800 dts_time:5.32 duration:0 duration_time:0 stream_index:0
[mpeg @ 0x121c1b580] buffer underflow st=0 bufi=881 size=3399
[mpeg @ 0x121c1b580] buffer underflow st=0 bufi=2922 size=3399
pts:486000 pts_time:5.4 dts:482400 dts_time:5.36 duration:0 duration_time:0 stream_index:0
[mpeg @ 0x121c1b580] buffer underflow st=0 bufi=1555 size=2065
pts:489600 pts_time:5.44 dts:486000 dts_time:5.4 duration:0 duration_time:0 stream_index:0
[mpeg @ 0x121c1b580] buffer underflow st=0 bufi=1522 size=1997
pts:493200 pts_time:5.48 dts:489600 dts_time:5.44 duration:0 duration_time:0 stream_index:0
[mpeg @ 0x121c1b580] buffer underflow st=0 bufi=1557 size=3455
pts:496800 pts_time:5.52 dts:493200 dts_time:5.48 duration:0 duration_time:0 stream_index:0
[mpeg @ 0x121c1b580] buffer underflow st=0 bufi=134 size=2210
[mpeg @ 0x121c1b580] buffer underflow st=0 bufi=2175 size=2210
pts:500400 pts_time:5.56 dts:496800 dts_time:5.52 duration:0 duration_time:0 stream_index:0
[mpeg @ 0x121c1b580] buffer underflow st=0 bufi=1997 size=2768
pts:504000 pts_time:5.6 dts:500400 dts_time:5.56 duration:0 duration_time:0 stream_index:0
[mpeg @ 0x121c1b580] buffer underflow st=0 bufi=1261 size=2367
pts:507600 pts_time:5.64 dts:504000 dts_time:5.6 duration:0 duration_time:0 stream_index:0
[mpeg @ 0x121c1b580] buffer underflow st=0 bufi=926 size=2142
pts:511200 pts_time:5.68 dts:507600 dts_time:5.64 duration:0 duration_time:0 stream_index:0
[mpeg @ 0x121c1b580] buffer underflow st=0 bufi=816 size=2380
pts:514800 pts_time:5.72 dts:511200 dts_time:5.68 duration:0 duration_time:0 stream_index:0
[mpeg @ 0x121c1b580] buffer underflow st=0 bufi=468 size=8962
[mpeg @ 0x121c1b580] buffer underflow st=0 bufi=2509 size=8962
[mpeg @ 0x121c1b580] buffer underflow st=0 bufi=4550 size=8962
[mpeg @ 0x121c1b580] buffer underflow st=0 bufi=6591 size=8962
[mpeg @ 0x121c1b580] buffer underflow st=0 bufi=8632 size=8962
pts:518400 pts_time:5.76 dts:514800 dts_time:5.72 duration:0 duration_time:0 stream_index:0
[mpeg @ 0x121c1b580] buffer underflow st=0 bufi=1702 size=1870
pts:522000 pts_time:5.8 dts:518400 dts_time:5.76 duration:0 duration_time:0 stream_index:0
[mpeg @ 0x121c1b580] buffer underflow st=0 bufi=1864 size=2064
pts:525600 pts_time:5.84 dts:522000 dts_time:5.8 duration:0 duration_time:0 stream_index:0
[mpeg @ 0x121c1b580] buffer underflow st=0 bufi=1832 size=2759
pts:529200 pts_time:5.88 dts:525600 dts_time:5.84 duration:0 duration_time:0 stream_index:0
[mpeg @ 0x121c1b580] buffer underflow st=0 bufi=1105 size=1679
pts:532800 pts_time:5.92 dts:529200 dts_time:5.88 duration:0 duration_time:0 stream_index:0
[mpeg @ 0x121c1b580] buffer underflow st=0 bufi=1458 size=1903
pts:536400 pts_time:5.96 dts:532800 dts_time:5.92 duration:0 duration_time:0 stream_index:0
[mpeg @ 0x121c1b580] buffer underflow st=0 bufi=1587 size=2575
pts:540000 pts_time:6 dts:536400 dts_time:5.96 duration:0 duration_time:0 stream_index:0
[mpeg @ 0x121c1b580] buffer underflow st=0 bufi=1044 size=2145
pts:543600 pts_time:6.04 dts:540000 dts_time:6 duration:0 duration_time:0 stream_index:0
[mpeg @ 0x121c1b580] buffer underflow st=0 bufi=931 size=2179
pts:547200 pts_time:6.08 dts:543600 dts_time:6.04 duration:0 duration_time:0 stream_index:0
[mpeg @ 0x121c1b580] buffer underflow st=0 bufi=784 size=1688
pts:550800 pts_time:6.12 dts:547200 dts_time:6.08 duration:0 duration_time:0 stream_index:0
[mpeg @ 0x121c1b580] buffer underflow st=0 bufi=1128 size=2632
pts:554400 pts_time:6.16 dts:550800 dts_time:6.12 duration:0 duration_time:0 stream_index:0
[mpeg @ 0x121c1b580] buffer underflow st=0 bufi=528 size=1782
pts:558000 pts_time:6.2 dts:554400 dts_time:6.16 duration:0 duration_time:0 stream_index:0
[mpeg @ 0x121c1b580] buffer underflow st=0 bufi=778 size=10423
[mpeg @ 0x121c1b580] buffer underflow st=0 bufi=2819 size=10423
[mpeg @ 0x121c1b580] buffer underflow st=0 bufi=4860 size=10423
[mpeg @ 0x121c1b580] buffer underflow st=0 bufi=6901 size=10423
[mpeg @ 0x121c1b580] buffer underflow st=0 bufi=8930 size=10423
pts:561600 pts_time:6.24 dts:558000 dts_time:6.2 duration:0 duration_time:0 stream_index:0
[mpeg @ 0x121c1b580] buffer underflow st=0 bufi=539 size=2843
[mpeg @ 0x121c1b580] buffer underflow st=0 bufi=2580 size=2843
pts:565200 pts_time:6.28 dts:561600 dts_time:6.24 duration:0 duration_time:0 stream_index:0
[mpeg @ 0x121c1b580] buffer underflow st=0 bufi=1769 size=2054
pts:568800 pts_time:6.32 dts:565200 dts_time:6.28 duration:0 duration_time:0 stream_index:0
[mpeg @ 0x121c1b580] buffer underflow st=0 bufi=1747 size=2850
pts:572400 pts_time:6.36 dts:568800 dts_time:6.32 duration:0 duration_time:0 stream_index:0
[mpeg @ 0x121c1b580] buffer underflow st=0 bufi=929 size=1783
pts:576000 pts_time:6.4 dts:572400 dts_time:6.36 duration:0 duration_time:0 stream_index:0
[mpeg @ 0x121c1b580] buffer underflow st=0 bufi=1178 size=1607
pts:579600 pts_time:6.44 dts:576000 dts_time:6.4 duration:0 duration_time:0 stream_index:0
[mpeg @ 0x121c1b580] buffer underflow st=0 bufi=1603 size=2830
pts:583200 pts_time:6.48 dts:579600 dts_time:6.44 duration:0 duration_time:0 stream_index:0
[mpeg @ 0x121c1b580] buffer underflow st=0 bufi=805 size=1824
pts:586800 pts_time:6.52 dts:583200 dts_time:6.48 duration:0 duration_time:0 stream_index:0
[mpeg @ 0x121c1b580] buffer underflow st=0 bufi=1013 size=2322
pts:590400 pts_time:6.56 dts:586800 dts_time:6.52 duration:0 duration_time:0 stream_index:0
[mpeg @ 0x121c1b580] buffer underflow st=0 bufi=723 size=1928
pts:594000 pts_time:6.6 dts:590400 dts_time:6.56 duration:0 duration_time:0 stream_index:0
[mpeg @ 0x121c1b580] buffer underflow st=0 bufi=827 size=2349
pts:597600 pts_time:6.64 dts:594000 dts_time:6.6 duration:0 duration_time:0 stream_index:0
[mpeg @ 0x121c1b580] buffer underflow st=0 bufi=510 size=2110
pts:601200 pts_time:6.68 dts:597600 dts_time:6.64 duration:0 duration_time:0 stream_index:0
[mpeg @ 0x121c1b580] buffer underflow st=0 bufi=432 size=8958
[mpeg @ 0x121c1b580] buffer underflow st=0 bufi=2473 size=8958
[mpeg @ 0x121c1b580] buffer underflow st=0 bufi=4514 size=8958
[mpeg @ 0x121c1b580] buffer underflow st=0 bufi=6555 size=8958
[mpeg @ 0x121c1b580] buffer underflow st=0 bufi=8596 size=8958
pts:604800 pts_time:6.72 dts:601200 dts_time:6.68 duration:0 duration_time:0 stream_index:0
[mpeg @ 0x121c1b580] buffer underflow st=0 bufi=1670 size=1835
pts:608400 pts_time:6.76 dts:604800 dts_time:6.72 duration:0 duration_time:0 stream_index:0
[mpeg @ 0x121c1b580] buffer underflow st=0 bufi=1867 size=2036
pts:612000 pts_time:6.8 dts:608400 dts_time:6.76 duration:0 duration_time:0 stream_index:0
[mpeg @ 0x121c1b580] buffer underflow st=0 bufi=1863 size=2707
pts:615600 pts_time:6.84 dts:612000 dts_time:6.8 duration:0 duration_time:0 stream_index:0
[mpeg @ 0x121c1b580] buffer underflow st=0 bufi=1188 size=1685
pts:619200 pts_time:6.88 dts:615600 dts_time:6.84 duration:0 duration_time:0 stream_index:0
[mpeg @ 0x121c1b580] buffer underflow st=0 bufi=1535 size=1870
pts:622800 pts_time:6.92 dts:619200 dts_time:6.88 duration:0 duration_time:0 stream_index:0
[mpeg @ 0x121c1b580] buffer underflow st=0 bufi=1697 size=2537
pts:626400 pts_time:6.96 dts:622800 dts_time:6.92 duration:0 duration_time:0 stream_index:0
[mpeg @ 0x121c1b580] buffer underflow st=0 bufi=1192 size=2052
pts:630000 pts_time:7 dts:626400 dts_time:6.96 duration:0 duration_time:0 stream_index:0
[mpeg @ 0x121c1b580] buffer underflow st=0 bufi=1172 size=2262
pts:633600 pts_time:7.04 dts:630000 dts_time:7 duration:0 duration_time:0 stream_index:0
[mpeg @ 0x121c1b580] buffer underflow st=0 bufi=942 size=1685
pts:637200 pts_time:7.08 dts:633600 dts_time:7.04 duration:0 duration_time:0 stream_index:0
[mpeg @ 0x121c1b580] buffer underflow st=0 bufi=1289 size=2521
pts:640800 pts_time:7.12 dts:637200 dts_time:7.08 duration:0 duration_time:0 stream_index:0
[mpeg @ 0x121c1b580] buffer underflow st=0 bufi=800 size=1878
pts:644400 pts_time:7.16 dts:640800 dts_time:7.12 duration:0 duration_time:0 stream_index:0
[mpeg @ 0x121c1b580] buffer underflow st=0 bufi=954 size=10779
[mpeg @ 0x121c1b580] buffer underflow st=0 bufi=2995 size=10779
[mpeg @ 0x121c1b580] buffer underflow st=0 bufi=5036 size=10779
[mpeg @ 0x121c1b580] buffer underflow st=0 bufi=7077 size=10779
[mpeg @ 0x121c1b580] buffer underflow st=0 bufi=9118 size=10779
pts:648000 pts_time:7.2 dts:644400 dts_time:7.16 duration:0 duration_time:0 stream_index:0
[mpeg @ 0x121c1b580] buffer underflow st=0 bufi=371 size=3415
[mpeg @ 0x121c1b580] buffer underflow st=0 bufi=2412 size=3415
pts:651600 pts_time:7.24 dts:648000 dts_time:7.2 duration:0 duration_time:0 stream_index:0
[mpeg @ 0x121c1b580] buffer underflow st=0 bufi=1029 size=2343
pts:655200 pts_time:7.28 dts:651600 dts_time:7.24 duration:0 duration_time:0 stream_index:0
[mpeg @ 0x121c1b580] buffer underflow st=0 bufi=718 size=3421
[mpeg @ 0x121c1b580] buffer underflow st=0 bufi=2759 size=3421
pts:658800 pts_time:7.32 dts:655200 dts_time:7.28 duration:0 duration_time:0 stream_index:0
[mpeg @ 0x121c1b580] buffer underflow st=0 bufi=1370 size=2102
pts:662400 pts_time:7.36 dts:658800 dts_time:7.32 duration:0 duration_time:0 stream_index:0
[mpeg @ 0x121c1b580] buffer underflow st=0 bufi=1300 size=2029
pts:666000 pts_time:7.4 dts:662400 dts_time:7.36 duration:0 duration_time:0 stream_index:0
[mpeg @ 0x121c1b580] buffer underflow st=0 bufi=1303 size=3437
[mpeg @ 0x121c1b580] buffer underflow st=0 bufi=3344 size=3437
pts:669600 pts_time:7.44 dts:666000 dts_time:7.4 duration:0 duration_time:0 stream_index:0
[mpeg @ 0x121c1b580] buffer underflow st=0 bufi=1939 size=2235
pts:673200 pts_time:7.48 dts:669600 dts_time:7.44 duration:0 duration_time:0 stream_index:0
[mpeg @ 0x121c1b580] buffer underflow st=0 bufi=1736 size=2779
pts:676800 pts_time:7.52 dts:673200 dts_time:7.48 duration:0 duration_time:0 stream_index:0
[mpeg @ 0x121c1b580] buffer underflow st=0 bufi=989 size=2835
pts:680400 pts_time:7.56 dts:676800 dts_time:7.52 duration:0 duration_time:0 stream_index:0
[mpeg @ 0x121c1b580] buffer underflow st=0 bufi=186 size=2651
[mpeg @ 0x121c1b580] buffer underflow st=0 bufi=2227 size=2651
pts:684000 pts_time:7.6 dts:680400 dts_time:7.56 duration:0 duration_time:0 stream_index:0
[mpeg @ 0x121c1b580] buffer underflow st=0 bufi=1608 size=2986
pts:687600 pts_time:7.64 dts:684000 dts_time:7.6 duration:0 duration_time:0 stream_index:0
[mpeg @ 0x121c1b580] buffer underflow st=0 bufi=654 size=9022
[mpeg @ 0x121c1b580] buffer underflow st=0 bufi=2695 size=9022
[mpeg @ 0x121c1b580] buffer underflow st=0 bufi=4736 size=9022
[mpeg @ 0x121c1b580] buffer underflow st=0 bufi=6765 size=9022
[mpeg @ 0x121c1b580] buffer underflow st=0 bufi=8806 size=9022
pts:691200 pts_time:7.68 dts:687600 dts_time:7.64 duration:0 duration_time:0 stream_index:0
pts:694800 pts_time:7.72 dts:691200 dts_time:7.68 duration:0 duration_time:0 stream_index:0
[mpeg @ 0x121c1b580] buffer underflow st=0 bufi=457 size=1619
pts:698400 pts_time:7.76 dts:694800 dts_time:7.72 duration:0 duration_time:0 stream_index:0
[mpeg @ 0x121c1b580] buffer underflow st=0 bufi=870 size=2342
pts:702000 pts_time:7.8 dts:698400 dts_time:7.76 duration:0 duration_time:0 stream_index:0
[mpeg @ 0x121c1b580] buffer underflow st=0 bufi=560 size=1519
pts:705600 pts_time:7.84 dts:702000 dts_time:7.8 duration:0 duration_time:0 stream_index:0
[mpeg @ 0x121c1b580] buffer underflow st=0 bufi=1073 size=1604
pts:709200 pts_time:7.88 dts:705600 dts_time:7.84 duration:0 duration_time:0 stream_index:0
[mpeg @ 0x121c1b580] buffer underflow st=0 bufi=1501 size=2250
pts:712800 pts_time:7.92 dts:709200 dts_time:7.88 duration:0 duration_time:0 stream_index:0
[mpeg @ 0x121c1b580] buffer underflow st=0 bufi=1283 size=1744
pts:716400 pts_time:7.96 dts:712800 dts_time:7.92 duration:0 duration_time:0 stream_index:0
[mpeg @ 0x121c1b580] buffer underflow st=0 bufi=1571 size=2019
pts:720000 pts_time:8 dts:716400 dts_time:7.96 duration:0 duration_time:0 stream_index:0
[mpeg @ 0x121c1b580] buffer underflow st=0 bufi=1584 size=1875
pts:723600 pts_time:8.04 dts:720000 dts_time:8 duration:0 duration_time:0 stream_index:0
[mpeg @ 0x121c1b580] buffer underflow st=0 bufi=1741 size=2728
pts:727200 pts_time:8.08 dts:723600 dts_time:8.04 duration:0 duration_time:0 stream_index:0
[mpeg @ 0x121c1b580] buffer underflow st=0 bufi=1045 size=1925
pts:730800 pts_time:8.12 dts:727200 dts_time:8.08 duration:0 duration_time:0 stream_index:0
[mpeg @ 0x121c1b580] buffer underflow st=0 bufi=1152 size=10516
[mpeg @ 0x121c1b580] buffer underflow st=0 bufi=3193 size=10516
[mpeg @ 0x121c1b580] buffer underflow st=0 bufi=5234 size=10516
[mpeg @ 0x121c1b580] buffer underflow st=0 bufi=7275 size=10516
[mpeg @ 0x121c1b580] buffer underflow st=0 bufi=9316 size=10516
pts:734400 pts_time:8.16 dts:730800 dts_time:8.12 duration:0 duration_time:0 stream_index:0
[mpeg @ 0x121c1b580] buffer underflow st=0 bufi=832 size=2862
pts:738000 pts_time:8.2 dts:734400 dts_time:8.16 duration:0 duration_time:0 stream_index:0
[mpeg @ 0x121c1b580] buffer underflow st=0 bufi=2 size=2062
[mpeg @ 0x121c1b580] buffer underflow st=0 bufi=2043 size=2062
pts:741600 pts_time:8.24 dts:738000 dts_time:8.2 duration:0 duration_time:0 stream_index:0
[mpeg @ 0x121c1b580] buffer underflow st=0 bufi=2013 size=2890
pts:745200 pts_time:8.28 dts:741600 dts_time:8.24 duration:0 duration_time:0 stream_index:0
[mpeg @ 0x121c1b580] buffer underflow st=0 bufi=1155 size=1834
pts:748800 pts_time:8.32 dts:745200 dts_time:8.28 duration:0 duration_time:0 stream_index:0
[mpeg @ 0x121c1b580] buffer underflow st=0 bufi=1353 size=1665
pts:752400 pts_time:8.36 dts:748800 dts_time:8.32 duration:0 duration_time:0 stream_index:0
[mpeg @ 0x121c1b580] buffer underflow st=0 bufi=1720 size=2722
pts:756000 pts_time:8.4 dts:752400 dts_time:8.36 duration:0 duration_time:0 stream_index:0
[mpeg @ 0x121c1b580] buffer underflow st=0 bufi=1030 size=1777
pts:759600 pts_time:8.44 dts:756000 dts_time:8.4 duration:0 duration_time:0 stream_index:0
[mpeg @ 0x121c1b580] buffer underflow st=0 bufi=1285 size=2440
pts:763200 pts_time:8.48 dts:759600 dts_time:8.44 duration:0 duration_time:0 stream_index:0
[mpeg @ 0x121c1b580] buffer underflow st=0 bufi=877 size=1958
pts:766800 pts_time:8.52 dts:763200 dts_time:8.48 duration:0 duration_time:0 stream_index:0
[mpeg @ 0x121c1b580] buffer underflow st=0 bufi=951 size=2253
pts:770400 pts_time:8.56 dts:766800 dts_time:8.52 duration:0 duration_time:0 stream_index:0
[mpeg @ 0x121c1b580] buffer underflow st=0 bufi=730 size=2224
pts:774000 pts_time:8.6 dts:770400 dts_time:8.56 duration:0 duration_time:0 stream_index:0
[mpeg @ 0x121c1b580] buffer underflow st=0 bufi=538 size=9004
[mpeg @ 0x121c1b580] buffer underflow st=0 bufi=2579 size=9004
[mpeg @ 0x121c1b580] buffer underflow st=0 bufi=4620 size=9004
[mpeg @ 0x121c1b580] buffer underflow st=0 bufi=6661 size=9004
[mpeg @ 0x121c1b580] buffer underflow st=0 bufi=8702 size=9004
pts:777600 pts_time:8.64 dts:774000 dts_time:8.6 duration:0 duration_time:0 stream_index:0
[mpeg @ 0x121c1b580] buffer underflow st=0 bufi=1730 size=1834
pts:781200 pts_time:8.68 dts:777600 dts_time:8.64 duration:0 duration_time:0 stream_index:0
[mpeg @ 0x121c1b580] buffer underflow st=0 bufi=1928 size=2037
pts:784800 pts_time:8.72 dts:781200 dts_time:8.68 duration:0 duration_time:0 stream_index:0
[mpeg @ 0x121c1b580] buffer underflow st=0 bufi=1923 size=2776
pts:788400 pts_time:8.76 dts:784800 dts_time:8.72 duration:0 duration_time:0 stream_index:0
[mpeg @ 0x121c1b580] buffer underflow st=0 bufi=1179 size=1690
pts:792000 pts_time:8.8 dts:788400 dts_time:8.76 duration:0 duration_time:0 stream_index:0
[mpeg @ 0x121c1b580] buffer underflow st=0 bufi=1521 size=1945
pts:795600 pts_time:8.84 dts:792000 dts_time:8.8 duration:0 duration_time:0 stream_index:0
[mpeg @ 0x121c1b580] buffer underflow st=0 bufi=1608 size=2529
pts:799200 pts_time:8.88 dts:795600 dts_time:8.84 duration:0 duration_time:0 stream_index:0
[mpeg @ 0x121c1b580] buffer underflow st=0 bufi=1111 size=2057
pts:802800 pts_time:8.92 dts:799200 dts_time:8.88 duration:0 duration_time:0 stream_index:0
[mpeg @ 0x121c1b580] buffer underflow st=0 bufi=1086 size=2242
pts:806400 pts_time:8.96 dts:802800 dts_time:8.92 duration:0 duration_time:0 stream_index:0
[mpeg @ 0x121c1b580] buffer underflow st=0 bufi=876 size=1691
pts:810000 pts_time:9 dts:806400 dts_time:8.96 duration:0 duration_time:0 stream_index:0
[mpeg @ 0x121c1b580] buffer underflow st=0 bufi=1217 size=2424
pts:813600 pts_time:9.04 dts:810000 dts_time:9 duration:0 duration_time:0 stream_index:0
[mpeg @ 0x121c1b580] buffer underflow st=0 bufi=825 size=2025
pts:817200 pts_time:9.08 dts:813600 dts_time:9.04 duration:0 duration_time:0 stream_index:0
[mpeg @ 0x121c1b580] buffer underflow st=0 bufi=832 size=10423
[mpeg @ 0x121c1b580] buffer underflow st=0 bufi=2873 size=10423
[mpeg @ 0x121c1b580] buffer underflow st=0 bufi=4914 size=10423
[mpeg @ 0x121c1b580] buffer underflow st=0 bufi=6955 size=10423
[mpeg @ 0x121c1b580] buffer underflow st=0 bufi=8996 size=10423
pts:820800 pts_time:9.12 dts:817200 dts_time:9.08 duration:0 duration_time:0 stream_index:0
[mpeg @ 0x121c1b580] buffer underflow st=0 bufi=605 size=2866
[mpeg @ 0x121c1b580] buffer underflow st=0 bufi=2646 size=2866
pts:824400 pts_time:9.16 dts:820800 dts_time:9.12 duration:0 duration_time:0 stream_index:0
[mpeg @ 0x121c1b580] buffer underflow st=0 bufi=1800 size=2069
pts:828000 pts_time:9.2 dts:824400 dts_time:9.16 duration:0 duration_time:0 stream_index:0
[mpeg @ 0x121c1b580] buffer underflow st=0 bufi=1763 size=3257
pts:831600 pts_time:9.24 dts:828000 dts_time:9.2 duration:0 duration_time:0 stream_index:0
[mpeg @ 0x121c1b580] buffer underflow st=0 bufi=538 size=2034
pts:835200 pts_time:9.28 dts:831600 dts_time:9.24 duration:0 duration_time:0 stream_index:0
[mpeg @ 0x121c1b580] buffer underflow st=0 bufi=536 size=2051
pts:838800 pts_time:9.32 dts:835200 dts_time:9.28 duration:0 duration_time:0 stream_index:0
[mpeg @ 0x121c1b580] buffer underflow st=0 bufi=517 size=3452
[mpeg @ 0x121c1b580] buffer underflow st=0 bufi=2558 size=3452
pts:842400 pts_time:9.36 dts:838800 dts_time:9.32 duration:0 duration_time:0 stream_index:0
[mpeg @ 0x121c1b580] buffer underflow st=0 bufi=1138 size=2178
pts:846000 pts_time:9.4 dts:842400 dts_time:9.36 duration:0 duration_time:0 stream_index:0
[mpeg @ 0x121c1b580] buffer underflow st=0 bufi=992 size=2725
pts:849600 pts_time:9.44 dts:846000 dts_time:9.4 duration:0 duration_time:0 stream_index:0
[mpeg @ 0x121c1b580] buffer underflow st=0 bufi=299 size=2686
[mpeg @ 0x121c1b580] buffer underflow st=0 bufi=2340 size=2686
pts:853200 pts_time:9.48 dts:849600 dts_time:9.44 duration:0 duration_time:0 stream_index:0
[mpeg @ 0x121c1b580] buffer underflow st=0 bufi=1686 size=2563
pts:856800 pts_time:9.52 dts:853200 dts_time:9.48 duration:0 duration_time:0 stream_index:0
[mpeg @ 0x121c1b580] buffer underflow st=0 bufi=1155 size=2845
pts:860400 pts_time:9.56 dts:856800 dts_time:9.52 duration:0 duration_time:0 stream_index:0
[mpeg @ 0x121c1b580] buffer underflow st=0 bufi=342 size=9007
[mpeg @ 0x121c1b580] buffer underflow st=0 bufi=2383 size=9007
[mpeg @ 0x121c1b580] buffer underflow st=0 bufi=4424 size=9007
[mpeg @ 0x121c1b580] buffer underflow st=0 bufi=6465 size=9007
[mpeg @ 0x121c1b580] buffer underflow st=0 bufi=8506 size=9007
pts:864000 pts_time:9.6 dts:860400 dts_time:9.56 duration:0 duration_time:0 stream_index:0
[mpeg @ 0x121c1b580] buffer underflow st=0 bufi=1531 size=2164
pts:867600 pts_time:9.64 dts:864000 dts_time:9.6 duration:0 duration_time:0 stream_index:0
[mpeg @ 0x121c1b580] buffer underflow st=0 bufi=1399 size=2610
pts:871200 pts_time:9.68 dts:867600 dts_time:9.64 duration:0 duration_time:0 stream_index:0
[mpeg @ 0x121c1b580] buffer underflow st=0 bufi=821 size=3554
[mpeg @ 0x121c1b580] buffer underflow st=0 bufi=2862 size=3554
pts:874800 pts_time:9.72 dts:871200 dts_time:9.68 duration:0 duration_time:0 stream_index:0
[mpeg @ 0x121c1b580] buffer underflow st=0 bufi=1340 size=1535
pts:878400 pts_time:9.76 dts:874800 dts_time:9.72 duration:0 duration_time:0 stream_index:0
[mpeg @ 0x121c1b580] buffer underflow st=0 bufi=1837 size=2117
pts:882000 pts_time:9.8 dts:878400 dts_time:9.76 duration:0 duration_time:0 stream_index:0
[mpeg @ 0x121c1b580] buffer underflow st=0 bufi=1752 size=2625
pts:885600 pts_time:9.84 dts:882000 dts_time:9.8 duration:0 duration_time:0 stream_index:0
[mpeg @ 0x121c1b580] buffer underflow st=0 bufi=1159 size=2235
pts:889200 pts_time:9.88 dts:885600 dts_time:9.84 duration:0 duration_time:0 stream_index:0
[mpeg @ 0x121c1b580] buffer underflow st=0 bufi=956 size=2018
pts:892800 pts_time:9.92 dts:889200 dts_time:9.88 duration:0 duration_time:0 stream_index:0
[mpeg @ 0x121c1b580] buffer underflow st=0 bufi=970 size=1810
[mpeg @ 0x121c1b580] buffer underflow st=0 bufi=1192 size=2051
pts:896400 pts_time:9.96 dts:892800 dts_time:9.92 duration:0 duration_time:0 stream_index:0
pts:900000 pts_time:10 dts:896400 dts_time:9.96 duration:0 duration_time:0 stream_index:0
